<svg width="142" height="50" viewBox="0 0 142 50" fill="none" xmlns="http://www.w3.org/2000/svg">
<path d="M21.64 39L19.912 31.848H10.216L8.536 39H0.376L10.408 5.736H19.96L29.992 39H21.64ZM11.56 26.136H18.568L15.064 11.448L11.56 26.136ZM55.7605 15C54.0965 15.672 51.6485 16.008 48.4165 16.008C50.0805 16.712 51.2965 17.576 52.0645 18.6C52.8325 19.624 53.2165 20.952 53.2165 22.584C53.2165 24.216 52.7845 25.688 51.9205 27C51.0565 28.28 49.8085 29.288 48.1765 30.024C46.5765 30.76 44.6885 31.128 42.5125 31.128C41.4885 31.128 40.5125 31.032 39.5845 30.84C39.3285 30.968 39.1205 31.176 38.9605 31.464C38.8325 31.72 38.7685 31.992 38.7685 32.28C38.7685 32.76 38.9445 33.144 39.2965 33.432C39.6805 33.688 40.4325 33.816 41.5525 33.816H45.3925C47.3445 33.816 49.0565 34.136 50.5285 34.776C52.0005 35.416 53.1365 36.296 53.9365 37.416C54.7365 38.536 55.1365 39.8 55.1365 41.208C55.1365 43.864 53.9845 45.928 51.6805 47.4C49.4085 48.904 46.1125 49.656 41.7925 49.656C38.6885 49.656 36.2405 49.32 34.4485 48.648C32.6565 48.008 31.3925 47.096 30.6565 45.912C29.9525 44.728 29.6005 43.24 29.6005 41.448H36.4165C36.4165 42.216 36.5605 42.824 36.8485 43.272C37.1685 43.72 37.7285 44.056 38.5285 44.28C39.3285 44.504 40.4805 44.616 41.9845 44.616C44.0645 44.616 45.5045 44.36 46.3045 43.848C47.1045 43.368 47.5045 42.664 47.5045 41.736C47.5045 40.968 47.2005 40.36 46.5925 39.912C45.9845 39.464 45.0725 39.24 43.8565 39.24H40.1605C37.5365 39.24 35.5685 38.776 34.2565 37.848C32.9765 36.888 32.3365 35.672 32.3365 34.2C32.3365 33.272 32.6085 32.376 33.1525 31.512C33.6965 30.616 34.4325 29.88 35.3605 29.304C33.7605 28.44 32.5925 27.432 31.8565 26.28C31.1525 25.096 30.8005 23.672 30.8005 22.008C30.8005 19.16 31.8245 16.904 33.8725 15.24C35.9205 13.544 38.6245 12.696 41.9845 12.696C44.5445 12.76 46.7045 12.504 48.4645 11.928C50.2565 11.352 52.0965 10.504 53.9845 9.384L55.7605 15ZM42.1765 17.688C40.9925 17.688 40.0485 18.072 39.3445 18.84C38.6725 19.576 38.3365 20.6 38.3365 21.912C38.3365 23.288 38.6725 24.36 39.3445 25.128C40.0485 25.864 40.9925 26.232 42.1765 26.232C43.4245 26.232 44.3685 25.864 45.0085 25.128C45.6805 24.392 46.0165 23.288 46.0165 21.816C46.0165 19.064 44.7365 17.688 42.1765 17.688ZM79.7613 39H73.1853L72.8493 35.784C70.9933 38.472 68.4173 39.816 65.1213 39.816C62.7853 39.816 61.0093 39.112 59.7933 37.704C58.6093 36.296 58.0173 34.328 58.0173 31.8V13.512H65.6013V30.84C65.6013 32.088 65.7933 32.968 66.1773 33.48C66.5933 33.96 67.2173 34.2 68.0493 34.2C69.6493 34.2 71.0253 33.208 72.1773 31.224V13.512H79.7613V39ZM93.31 13.512V39H85.726V13.512H93.31ZM89.47 0.0719976C90.782 0.0719976 91.854 0.487998 92.686 1.32C93.55 2.12 93.982 3.144 93.982 4.392C93.982 5.64 93.55 6.68 92.686 7.512C91.854 8.312 90.782 8.712 89.47 8.712C88.158 8.712 87.086 8.312 86.254 7.512C85.422 6.68 85.006 5.64 85.006 4.392C85.006 3.144 85.422 2.12 86.254 1.32C87.086 0.487998 88.158 0.0719976 89.47 0.0719976ZM119.529 31.608C119.529 32.568 119.657 33.272 119.913 33.72C120.201 34.168 120.649 34.504 121.257 34.728L119.673 39.672C118.105 39.544 116.825 39.208 115.833 38.664C114.841 38.088 114.073 37.192 113.529 35.976C111.865 38.536 109.305 39.816 105.849 39.816C103.321 39.816 101.305 39.08 99.8009 37.608C98.2969 36.136 97.5449 34.216 97.5449 31.848C97.5449 29.064 98.5689 26.936 100.617 25.464C102.665 23.992 105.625 23.256 109.497 23.256H112.089V22.152C112.089 20.648 111.769 19.624 111.129 19.08C110.489 18.504 109.369 18.216 107.769 18.216C106.937 18.216 105.929 18.344 104.745 18.6C103.561 18.824 102.345 19.144 101.097 19.56L99.3689 14.568C100.969 13.96 102.601 13.496 104.265 13.176C105.961 12.856 107.529 12.696 108.969 12.696C112.617 12.696 115.289 13.448 116.985 14.952C118.681 16.456 119.529 18.712 119.529 21.72V31.608ZM108.057 34.392C109.785 34.392 111.129 33.576 112.089 31.944V27.432H110.217C108.489 27.432 107.193 27.736 106.329 28.344C105.497 28.952 105.081 29.896 105.081 31.176C105.081 32.2 105.337 33 105.849 33.576C106.393 34.12 107.129 34.392 108.057 34.392ZM139.394 12.792C140.322 12.792 141.17 12.904 141.938 13.128L140.738 20.472C139.778 20.248 139.01 20.136 138.434 20.136C136.93 20.136 135.778 20.664 134.978 21.72C134.21 22.744 133.602 24.296 133.154 26.376V39H125.57V13.512H132.194L132.818 18.456C133.394 16.696 134.258 15.32 135.41 14.328C136.594 13.304 137.922 12.792 139.394 12.792Z" fill="black"/>
</svg>
