<svg width="20" height="20" viewBox="0 0 20 20" fill="none" xmlns="http://www.w3.org/2000/svg">
<path d="M13.2317 13.1558C13.5368 13.1235 13.8179 12.9752 14.0169 12.7417C14.216 12.5082 14.3177 12.2071 14.3013 11.9007C14.2848 11.5943 14.1514 11.3059 13.9284 11.095C13.7055 10.8842 13.4102 10.7669 13.1033 10.7675H13.0617C12.9047 10.7726 12.7503 10.8088 12.6074 10.8738C12.4644 10.9388 12.3357 11.0314 12.2287 11.1464C12.1217 11.2613 12.0384 11.3962 11.9837 11.5434C11.929 11.6906 11.904 11.8472 11.91 12.0041C11.9308 12.3241 12.0592 12.6016 12.2517 12.7933C11.5267 14.2216 10.4175 15.2666 8.75417 16.1408C7.62417 16.7383 6.45084 16.9508 5.27917 16.8016C4.31917 16.6741 3.5725 16.2475 3.10417 15.5433C2.42083 14.4991 2.3575 13.3683 2.93334 12.2391C3.33834 11.4283 3.9775 10.8308 4.38334 10.5333C4.27344 10.1755 4.18084 9.81254 4.10584 9.4458C1.01417 11.6841 1.33417 14.7125 2.2725 16.1408C2.97584 17.2075 4.40417 17.8683 5.98167 17.8683C6.41288 17.8711 6.84278 17.8207 7.26167 17.7183C9.99084 17.185 12.0592 15.565 13.2317 13.1558Z" fill="#72E10E" stroke="#72E10E" stroke-width="0.435" stroke-linejoin="round"/>
<path d="M16.9842 10.5116C15.3642 8.61408 12.9758 7.56991 10.2467 7.56991H9.90501C9.80675 7.37739 9.65728 7.2157 9.47306 7.10264C9.28884 6.98957 9.077 6.92952 8.86085 6.92908H8.81834C8.66132 6.93423 8.50686 6.97039 8.36385 7.03546C8.22085 7.10054 8.09213 7.19325 7.98509 7.30826C7.87806 7.42328 7.79482 7.55832 7.74018 7.70562C7.68553 7.85293 7.66055 8.00958 7.66668 8.16658C7.67872 8.47544 7.80973 8.76768 8.0323 8.98217C8.25486 9.19666 8.55175 9.31679 8.86085 9.31741H8.90251C9.12727 9.30677 9.34452 9.23315 9.52945 9.10496C9.71437 8.97676 9.85953 8.79916 9.94834 8.59241H10.3317C11.9525 8.59241 13.4875 9.06158 14.8733 9.97824C15.94 10.6824 16.7067 11.5991 17.1333 12.7082C17.4958 13.6032 17.475 14.4774 17.0917 15.2241C16.4942 16.3541 15.4917 16.9724 14.17 16.9724C13.4505 16.9635 12.74 16.8114 12.08 16.5249C11.8458 16.7382 11.4192 17.0791 11.1208 17.2916C12.0375 17.7191 12.9758 17.9532 13.8708 17.9532C15.9183 17.9532 17.4325 16.8232 18.0083 15.6932C18.6267 14.4566 18.5833 12.3241 16.9842 10.5116Z" fill="#72E10E" stroke="#72E10E" stroke-width="0.435" stroke-linejoin="round"/>
<path d="M6.15246 13.5183C6.16429 13.8273 6.29521 14.1198 6.5178 14.3344C6.74039 14.5491 7.03739 14.6693 7.34662 14.67H7.38912C7.54608 14.6648 7.70047 14.6287 7.84342 14.5637C7.98636 14.4986 8.11505 14.406 8.22207 14.2911C8.3291 14.1761 8.41235 14.0412 8.46705 13.894C8.52174 13.7468 8.54681 13.5902 8.54079 13.4333C8.52896 13.1243 8.39804 12.8318 8.17545 12.6172C7.95286 12.4025 7.65586 12.2823 7.34662 12.2816H7.30412C7.26162 12.2816 7.19746 12.2816 7.15412 12.3025C6.28079 10.8525 5.91829 9.27496 6.04579 7.56913C6.13162 6.28996 6.55746 5.1808 7.30412 4.26413C7.92246 3.47496 9.11662 3.09163 9.92662 3.06996C12.1866 3.0283 13.1466 5.84246 13.21 6.97246C13.4875 7.0358 13.9566 7.1858 14.2766 7.29163C14.0208 3.83746 11.8883 2.04663 9.84162 2.04663C7.92246 2.04663 6.15246 3.43246 5.44912 5.47996C4.46829 8.20913 5.10746 10.8316 6.30162 12.9C6.18296 13.0831 6.13033 13.3012 6.15246 13.5183Z" fill="#72E10E" stroke="#72E10E" stroke-width="0.435" stroke-linejoin="round"/>
</svg>
